# Blender 4.4.1
# www.blender.org
mtllib bench.mtl
o Cube.001
v 1.501524 0.574633 0.304034
v 1.501524 0.746077 0.346473
v 1.501524 0.548527 0.409499
v 1.501524 0.719971 0.451938
v -1.501524 0.574633 0.304035
v -1.501524 0.746077 0.346474
v -1.501524 0.548527 0.409500
v -1.501524 0.719971 0.451939
v 1.501524 0.797510 0.359204
v 1.501524 0.968954 0.401643
v 1.501524 0.771404 0.464669
v 1.501524 0.942848 0.507108
v -1.501524 0.797510 0.359205
v -1.501524 0.968954 0.401643
v -1.501524 0.771404 0.464670
v -1.501524 0.942848 0.507109
v 1.501524 1.020387 0.414374
v 1.501524 1.191831 0.456812
v 1.501524 0.994281 0.519839
v 1.501524 1.165725 0.562277
v -1.501524 1.020387 0.414375
v -1.501524 1.191831 0.456813
v -1.501524 0.994281 0.519840
v -1.501524 1.165725 0.562278
v 1.501524 0.483103 -0.318479
v 1.501524 0.483103 -0.141860
v 1.501524 0.374454 -0.318479
v 1.501524 0.374454 -0.141860
v -1.501524 0.483103 -0.318478
v -1.501524 0.483103 -0.141859
v -1.501524 0.374454 -0.318478
v -1.501524 0.374454 -0.141859
v 1.501524 0.483103 -0.088875
v 1.501524 0.483103 0.087743
v 1.501524 0.374454 -0.088875
v 1.501524 0.374454 0.087743
v -1.501524 0.483103 -0.088874
v -1.501524 0.483103 0.087744
v -1.501524 0.374454 -0.088874
v -1.501524 0.374454 0.087744
v 1.501524 0.483103 0.140729
v 1.501524 0.483103 0.317347
v 1.501524 0.374454 0.140729
v 1.501524 0.374454 0.317347
v -1.501524 0.483103 0.140730
v -1.501524 0.483103 0.317348
v -1.501524 0.374454 0.140730
v -1.501524 0.374454 0.317348
v -1.480634 0.007429 -0.387890
v -1.524674 0.007429 -0.359683
v -1.522740 0.001709 -0.308180
v -1.476766 -0.004011 -0.284884
v -1.432726 -0.004011 -0.313090
v -1.434660 0.001709 -0.364593
v -1.418842 0.387502 -0.321834
v -1.490515 0.387502 -0.275929
v -1.487369 0.378193 -0.192110
v -1.412549 0.368884 -0.154196
v -1.340875 0.368884 -0.200101
v -1.344022 0.378193 -0.283920
v 1.480633 0.007429 -0.387891
v 1.524673 0.007429 -0.359684
v 1.522740 0.001709 -0.308181
v 1.476766 -0.004011 -0.284885
v 1.432726 -0.004011 -0.313091
v 1.434660 0.001709 -0.364594
v 1.418842 0.387502 -0.321835
v 1.490515 0.387502 -0.275930
v 1.487368 0.378193 -0.192111
v 1.412549 0.368884 -0.154197
v 1.340875 0.368884 -0.200102
v 1.344022 0.378193 -0.283921
v -1.480633 0.007429 0.387891
v -1.524673 0.007429 0.359684
v -1.522740 0.001709 0.308181
v -1.476766 -0.004011 0.284885
v -1.432726 -0.004011 0.313091
v -1.434660 0.001709 0.364594
v -1.418842 0.387502 0.321835
v -1.490515 0.387502 0.275930
v -1.487368 0.378193 0.192111
v -1.412549 0.368884 0.154197
v -1.340875 0.368884 0.200102
v -1.344022 0.378193 0.283921
v 1.480634 0.007429 0.387890
v 1.524674 0.007429 0.359683
v 1.522740 0.001709 0.308180
v 1.476766 -0.004011 0.284884
v 1.432726 -0.004011 0.313090
v 1.434660 0.001709 0.364593
v 1.418842 0.387502 0.321834
v 1.490515 0.387502 0.275929
v 1.487369 0.378193 0.192110
v 1.412549 0.368884 0.154196
v 1.340875 0.368884 0.200101
v 1.344022 0.378193 0.283920
vn 1.0000 -0.0000 -0.0000
vn -0.0000 -0.2403 0.9707
vn -1.0000 -0.0000 -0.0000
vn -0.0000 0.2403 -0.9707
vn -0.0000 -0.9707 -0.2403
vn -0.0000 0.9707 0.2403
vn -0.0000 -1.0000 -0.0000
vn -0.0000 1.0000 -0.0000
vn -0.0000 -0.0000 -1.0000
vn -0.0000 -0.0000 1.0000
vn -0.0118 0.1731 -0.9848
vn 0.8027 -0.0662 -0.5927
vn -0.0663 0.1813 -0.9812
vn -0.8635 0.1813 -0.4706
vn -0.8741 -0.0662 0.4812
vn -0.8896 0.1731 -0.4226
vn -0.0009 -0.3306 0.9438
vn -0.8154 -0.0992 0.5703
vn 0.8323 -0.3381 0.4392
vn 0.8577 -0.3306 0.3939
vn 0.8591 -0.0992 -0.5022
vn -0.8027 -0.0662 -0.5927
vn 0.0118 0.1731 -0.9848
vn 0.0663 0.1813 -0.9812
vn 0.8635 0.1813 -0.4706
vn 0.8896 0.1731 -0.4226
vn 0.8741 -0.0662 0.4812
vn 0.8154 -0.0992 0.5703
vn 0.0010 -0.3306 0.9438
vn -0.0508 -0.3381 0.9397
vn -0.8323 -0.3381 0.4392
vn -0.8577 -0.3306 0.3939
vn -0.8591 -0.0992 -0.5022
vn 0.8027 -0.0662 0.5927
vn -0.0118 0.1731 0.9848
vn -0.0663 0.1813 0.9812
vn -0.8635 0.1813 0.4706
vn -0.8896 0.1731 0.4226
vn -0.8741 -0.0662 -0.4812
vn -0.8154 -0.0992 -0.5703
vn -0.0010 -0.3306 -0.9438
vn 0.0508 -0.3381 -0.9397
vn 0.8323 -0.3381 -0.4392
vn 0.8577 -0.3306 -0.3939
vn 0.8591 -0.0992 0.5022
vn 0.0118 0.1731 0.9848
vn -0.8027 -0.0662 0.5927
vn 0.0663 0.1813 0.9812
vn 0.8635 0.1813 0.4706
vn 0.8741 -0.0662 -0.4812
vn 0.8896 0.1731 0.4226
vn 0.0009 -0.3306 -0.9438
vn 0.8154 -0.0992 -0.5703
vn -0.8323 -0.3381 -0.4392
vn -0.8577 -0.3306 -0.3939
vn -0.8591 -0.0992 0.5022
vn 0.0508 -0.3381 0.9397
vn -0.0508 -0.3381 -0.9397
vt 0.735447 0.441495
vt 0.774237 0.480285
vt 0.735447 0.480285
vt 0.813027 0.519075
vt 0.774237 0.519075
vt 0.813027 0.480285
vt 0.851817 0.441495
vt 0.851817 0.480285
vt 0.813027 0.441495
vt 0.774237 0.402705
vt 0.813027 0.402705
vt 0.774237 0.557865
vt 0.774237 0.441495
vt 0.899986 0.426761
vt 0.924043 0.450818
vt 0.899986 0.450818
vt 0.899986 0.498931
vt 0.875930 0.474875
vt 0.899986 0.474875
vt 0.851873 0.426761
vt 0.875930 0.450818
vt 0.851873 0.450818
vt 0.875930 0.426761
vt 0.899986 0.402705
vt 0.875930 0.402705
vt 0.872853 0.515716
vt 0.871419 0.499302
vt 0.872853 0.499341
vt 0.874288 0.499302
vt 0.875718 0.499184
vt 0.875188 0.515652
vt 0.877139 0.498987
vt 0.877515 0.515460
vt 0.868192 0.515460
vt 0.868567 0.498987
vt 0.869989 0.499184
vt 0.870519 0.515652
vt 0.860282 0.499302
vt 0.858848 0.515716
vt 0.858848 0.499341
vt 0.857413 0.499302
vt 0.856514 0.515652
vt 0.855983 0.499184
vt 0.854186 0.515460
vt 0.854562 0.498987
vt 0.851873 0.515140
vt 0.863134 0.498987
vt 0.863509 0.515460
vt 0.861712 0.499184
vt 0.861182 0.515652
vt 0.860282 0.516087
vt 0.858848 0.532501
vt 0.858848 0.516126
vt 0.857413 0.516087
vt 0.856514 0.532437
vt 0.855983 0.515969
vt 0.854186 0.532245
vt 0.854562 0.515772
vt 0.851873 0.531925
vt 0.863134 0.515772
vt 0.863509 0.532245
vt 0.861712 0.515969
vt 0.861182 0.532437
vt 0.870519 0.532437
vt 0.869989 0.515969
vt 0.871419 0.516087
vt 0.872853 0.516126
vt 0.874288 0.516087
vt 0.872853 0.532501
vt 0.875718 0.515969
vt 0.875188 0.532437
vt 0.879828 0.531925
vt 0.877139 0.515772
vt 0.868192 0.532245
vt 0.868567 0.515772
vt 0.813027 0.557865
vt 0.924043 0.426761
vt 0.875930 0.498931
vt 0.879828 0.515140
vt 0.865878 0.515140
vt 0.865823 0.515140
vt 0.865823 0.531925
vt 0.877515 0.532245
vt 0.865878 0.531925
s 0
usemtl Material.001
f 1/1/1 4/2/1 3/3/1
f 4/2/2 7/4/2 3/5/2
f 8/6/3 5/7/3 7/8/3
f 6/9/4 1/10/4 5/11/4
f 7/4/5 1/12/5 3/5/5
f 4/2/6 6/9/6 8/6/6
f 9/1/1 12/2/1 11/3/1
f 12/2/2 15/4/2 11/5/2
f 16/6/3 13/7/3 15/8/3
f 14/9/4 9/10/4 13/11/4
f 15/4/5 9/12/5 11/5/5
f 12/2/6 14/9/6 16/6/6
f 18/13/1 19/3/1 17/1/1
f 20/2/2 23/4/2 19/5/2
f 23/8/3 22/9/3 21/7/3
f 22/9/4 17/10/4 21/11/4
f 23/4/5 17/12/5 19/5/5
f 24/6/6 18/13/6 22/9/6
f 26/14/1 27/15/1 25/16/1
f 28/17/7 31/18/7 27/19/7
f 32/20/3 29/21/3 31/22/3
f 30/23/8 25/16/8 29/21/8
f 31/18/9 25/16/9 27/19/9
f 28/24/10 30/23/10 32/25/10
f 34/14/1 35/15/1 33/16/1
f 36/17/7 39/18/7 35/19/7
f 40/20/3 37/21/3 39/22/3
f 37/21/8 34/14/8 33/16/8
f 39/18/9 33/16/9 35/19/9
f 36/24/10 38/23/10 40/25/10
f 42/14/1 43/15/1 41/16/1
f 44/17/7 47/18/7 43/19/7
f 48/20/3 45/21/3 47/22/3
f 46/23/8 41/16/8 45/21/8
f 47/18/9 41/16/9 43/19/9
f 44/24/10 46/23/10 48/25/10
s 1
f 55/26/11 54/27/12 49/28/13
f 50/29/14 55/26/11 49/28/13
f 51/30/15 56/31/16 50/29/14
f 52/32/17 57/33/18 51/30/15
f 59/34/19 52/35/17 53/36/20
f 60/37/21 53/36/20 54/27/12
f 66/38/22 67/39/23 61/40/24
f 62/41/25 67/39/23 68/42/26
f 63/43/27 68/42/26 69/44/28
f 64/45/29 69/44/28 70/46/30
f 64/47/29 71/48/31 65/49/32
f 65/49/32 72/50/33 66/38/22
f 78/51/34 79/52/35 73/53/36
f 74/54/37 79/52/35 80/55/38
f 75/56/39 80/55/38 81/57/40
f 76/58/41 81/57/40 82/59/42
f 76/60/41 83/61/43 77/62/44
f 77/62/44 84/63/45 78/51/34
f 91/64/46 90/65/47 85/66/48
f 86/67/49 91/64/46 85/66/48
f 87/68/50 92/69/51 86/67/49
f 88/70/52 93/71/53 87/68/50
f 95/72/54 88/70/52 89/73/55
f 96/74/56 89/75/55 90/65/47
s 0
f 1/1/1 2/13/1 4/2/1
f 4/2/2 8/6/2 7/4/2
f 8/6/3 6/9/3 5/7/3
f 6/9/4 2/13/4 1/10/4
f 7/4/5 5/76/5 1/12/5
f 4/2/6 2/13/6 6/9/6
f 9/1/1 10/13/1 12/2/1
f 12/2/2 16/6/2 15/4/2
f 16/6/3 14/9/3 13/7/3
f 14/9/4 10/13/4 9/10/4
f 15/4/5 13/76/5 9/12/5
f 12/2/6 10/13/6 14/9/6
f 18/13/1 20/2/1 19/3/1
f 20/2/2 24/6/2 23/4/2
f 23/8/3 24/6/3 22/9/3
f 22/9/4 18/13/4 17/10/4
f 23/4/5 21/76/5 17/12/5
f 24/6/6 20/2/6 18/13/6
f 26/14/1 28/77/1 27/15/1
f 28/17/7 32/78/7 31/18/7
f 32/20/3 30/23/3 29/21/3
f 30/23/8 26/14/8 25/16/8
f 31/18/9 29/21/9 25/16/9
f 28/24/10 26/14/10 30/23/10
f 34/14/1 36/77/1 35/15/1
f 36/17/7 40/78/7 39/18/7
f 40/20/3 38/23/3 37/21/3
f 37/21/8 38/23/8 34/14/8
f 39/18/9 37/21/9 33/16/9
f 36/24/10 34/14/10 38/23/10
f 42/14/1 44/77/1 43/15/1
f 44/17/7 48/78/7 47/18/7
f 48/20/3 46/23/3 45/21/3
f 46/23/8 42/14/8 41/16/8
f 47/18/9 45/21/9 41/16/9
f 44/24/10 42/14/10 46/23/10
s 1
f 55/26/11 60/37/21 54/27/12
f 50/29/14 56/31/16 55/26/11
f 51/30/15 57/33/18 56/31/16
f 52/32/17 58/79/57 57/33/18
f 59/34/19 58/80/57 52/35/17
f 60/37/21 59/34/19 53/36/20
f 66/38/22 72/50/33 67/39/23
f 62/41/25 61/40/24 67/39/23
f 63/43/27 62/41/25 68/42/26
f 64/45/29 63/43/27 69/44/28
f 64/47/29 70/81/30 71/48/31
f 65/49/32 71/48/31 72/50/33
f 78/51/34 84/63/45 79/52/35
f 74/54/37 73/53/36 79/52/35
f 75/56/39 74/54/37 80/55/38
f 76/58/41 75/56/39 81/57/40
f 76/60/41 82/82/42 83/61/43
f 77/62/44 83/61/43 84/63/45
f 91/64/46 96/74/56 90/65/47
f 86/67/49 92/69/51 91/64/46
f 87/68/50 93/71/53 92/69/51
f 88/70/52 94/83/58 93/71/53
f 95/72/54 94/83/58 88/70/52
f 96/74/56 95/84/54 89/75/55
