# Blender 4.4.1
# www.blender.org
mtllib leg_R.mtl
o leg_R
v 0.006720 -0.616336 0.010071
v 0.048551 -0.616075 0.010071
v -0.007543 -0.527209 0.035094
v -0.018892 -0.616336 -0.012631
v -0.039088 -0.527209 0.006578
v 0.044103 -0.527003 0.035094
v 0.065563 -0.615573 -0.012631
v 0.065844 -0.616655 -0.058037
v 0.068853 -0.526606 0.006578
v 0.069075 -0.527461 -0.050453
v -0.018892 -0.616336 -0.058037
v 0.004399 -0.616336 -0.080739
v -0.039088 -0.527209 -0.050453
v -0.010401 -0.527209 -0.078969
v 0.047018 -0.527218 -0.078969
v -0.043688 -0.321617 -0.073129
v 0.036656 -0.321645 -0.073130
v 0.033403 -0.253325 -0.075422
v 0.071676 -0.321681 -0.032080
v 0.074863 -0.253386 -0.030416
v 0.072348 -0.253176 0.061100
v 0.085611 -0.121853 -0.039599
v 0.067547 -0.321419 0.050004
v 0.028250 -0.321463 0.091079
v 0.027037 -0.253213 0.105296
v -0.040445 -0.321387 0.091121
v -0.049235 -0.253182 0.104152
v -0.084007 -0.321439 0.050049
v -0.088597 -0.253162 0.059160
v -0.083966 -0.321538 -0.032075
v -0.083045 -0.253125 -0.030109
v -0.051578 -0.253231 -0.074786
v -0.107527 -0.121106 -0.038457
v -0.113307 -0.121353 0.065130
v -0.061209 -0.121486 0.118244
v 0.027469 -0.121574 0.122559
v 0.085412 -0.121594 0.072413
v -0.061367 -0.121416 -0.090419
v 0.032565 -0.121735 -0.092788
v 0.050944 -0.616348 -0.080739
vn -0.2259 -0.7501 0.6215
vn 0.3476 -0.7082 0.6145
vn -0.3413 -0.2994 0.8910
vn -0.6297 -0.7314 0.2619
vn -0.8794 -0.2784 0.3861
vn 0.4120 -0.2210 0.8840
vn 0.7099 -0.6722 0.2099
vn 0.7230 -0.6518 -0.2289
vn 0.9341 -0.0865 0.3464
vn 0.9466 0.0075 -0.3224
vn -0.6533 -0.6924 -0.3064
vn -0.2613 -0.6434 -0.7195
vn -0.9086 -0.1695 -0.3818
vn -0.3797 -0.0391 -0.9243
vn 0.4437 0.0372 -0.8954
vn -0.3935 -0.0543 -0.9177
vn 0.4187 0.0111 -0.9080
vn 0.3955 -0.0692 -0.9159
vn 0.9479 -0.0073 -0.3184
vn 0.9399 -0.0674 -0.3348
vn 0.9089 -0.1195 0.3995
vn 0.9207 -0.1000 -0.3772
vn 0.9134 -0.0990 0.3948
vn 0.3757 -0.2046 0.9039
vn 0.3582 -0.1570 0.9203
vn -0.3566 -0.2587 0.8977
vn -0.4075 -0.1684 0.8975
vn -0.9102 -0.1914 0.3673
vn -0.9305 -0.1440 0.3369
vn -0.9336 -0.0929 -0.3459
vn -0.9428 -0.0955 -0.3194
vn -0.4489 -0.0990 -0.8881
vn -0.9161 -0.1747 -0.3609
vn -0.9215 -0.1895 0.3389
vn -0.4200 -0.1443 0.8960
vn 0.3205 -0.1172 0.9400
vn 0.9026 -0.1139 0.4152
vn -0.4224 -0.1376 -0.8959
vn 0.3591 -0.1158 -0.9261
vn 0.3860 -0.5947 -0.7053
vt 0.323072 0.992932
vt 0.338418 0.987016
vt 0.333972 0.992936
vt 0.347009 0.957200
vt 0.371178 0.967378
vt 0.371117 0.955513
vt 0.347795 0.980103
vt 0.346381 0.969735
vt 0.316401 0.987018
vt 0.371959 0.976856
vt 0.348207 0.948147
vt 0.371950 0.947519
vt 0.316401 0.975192
vt 0.338482 0.975172
vt 0.350453 0.934350
vt 0.373611 0.935065
vt 0.322459 0.969272
vt 0.351497 0.910621
vt 0.374592 0.915375
vt 0.375099 0.906871
vt 0.351972 0.993868
vt 0.375099 0.988513
vt 0.352141 0.900129
vt 0.351140 0.925330
vt 0.438789 0.941896
vt 0.492032 0.931830
vt 0.493909 0.946686
vt 0.442044 0.962720
vt 0.495507 0.957105
vt 0.420847 0.946090
vt 0.418270 0.930169
vt 0.436484 0.927891
vt 0.490602 0.922482
vt 0.433079 0.906690
vt 0.414869 0.906569
vt 0.384077 0.935662
vt 0.431597 0.892035
vt 0.486822 0.897691
vt 0.487933 0.907684
vt 0.413713 0.890312
vt 0.432178 0.874385
vt 0.487406 0.883836
vt 0.414747 0.870743
vt 0.435527 0.859449
vt 0.418146 0.855664
vt 0.426540 0.833909
vt 0.443710 0.840009
vt 0.489676 0.872678
vt 0.444922 0.977423
vt 0.428641 0.981975
vt 0.424833 0.968098
vt 0.396400 0.994732
vt 0.384772 0.845377
vt 0.394392 0.819964
vt 0.380944 0.864580
vt 0.379293 0.887832
vt 0.380134 0.907608
vt 0.391295 0.977596
vt 0.386800 0.954180
vt 0.495507 0.858900
vt 0.374125 0.927739
vt 0.334584 0.969257
s 1
usemtl body
f 1/1/1 7/2/7 2/3/2
f 6/4/6 1/5/1 2/6/2
f 5/7/5 1/5/1 3/8/3
f 6/4/6 3/8/3 1/5/1
f 4/9/4 7/2/7 1/1/1
f 5/7/5 4/10/4 1/5/1
f 9/11/9 2/6/2 7/12/7
f 7/2/7 11/13/11 8/14/8
f 10/15/10 7/12/7 8/16/8
f 10/15/10 9/11/9 7/12/7
f 4/9/4 11/13/11 7/2/7
f 12/17/12 8/14/8 11/13/11
f 14/18/14 12/19/12 11/20/11
f 13/21/13 11/22/11 4/10/4
f 14/18/14 11/20/11 13/23/13
f 15/24/15 12/19/12 14/18/14
f 17/25/17 15/26/15 14/27/14
f 16/28/16 14/27/14 13/29/13
f 17/25/17 14/27/14 16/28/16
f 16/28/16 18/30/18 17/25/17
f 17/25/17 18/30/18 20/31/20
f 17/25/17 20/31/20 19/32/19
f 17/25/17 19/32/19 10/33/10
f 17/25/17 10/33/10 15/26/15
f 23/34/23 19/32/19 20/31/20
f 23/34/23 20/31/20 21/35/21
f 21/35/21 20/31/20 22/36/22
f 18/30/18 22/36/22 20/31/20
f 24/37/24 23/34/23 21/35/21
f 23/34/23 24/37/24 6/38/6
f 19/32/19 23/34/23 9/39/9
f 23/34/23 6/38/6 9/39/9
f 24/37/24 21/35/21 25/40/25
f 26/41/26 24/37/24 25/40/25
f 24/37/24 26/41/26 3/42/3
f 24/37/24 3/42/3 6/38/6
f 26/41/26 25/40/25 27/43/27
f 28/44/28 26/41/26 27/43/27
f 28/44/28 3/42/3 26/41/26
f 28/44/28 27/43/27 29/45/29
f 28/44/28 29/45/29 31/46/31
f 28/44/28 31/46/31 30/47/30
f 30/47/30 5/48/5 28/44/28
f 28/44/28 5/48/5 3/42/3
f 30/49/30 31/50/31 32/51/32
f 32/51/32 31/50/31 33/52/33
f 31/46/31 34/53/34 33/54/33
f 31/46/31 29/45/29 34/53/34
f 29/45/29 35/55/35 34/53/34
f 27/43/27 36/56/36 35/55/35
f 29/45/29 27/43/27 35/55/35
f 25/40/25 37/57/37 36/56/36
f 27/43/27 25/40/25 36/56/36
f 21/35/21 22/36/22 37/57/37
f 25/40/25 21/35/21 37/57/37
f 32/51/32 33/52/33 38/58/38
f 32/51/32 38/58/38 39/59/39
f 32/51/32 39/59/39 18/30/18
f 18/30/18 39/59/39 22/36/22
f 30/49/30 32/51/32 16/28/16
f 16/28/16 32/51/32 18/30/18
f 16/28/16 13/29/13 30/49/30
f 30/47/30 13/60/13 5/48/5
f 19/32/19 9/39/9 10/33/10
f 15/24/15 8/16/8 40/61/40
f 15/24/15 40/61/40 12/19/12
f 15/24/15 10/15/10 8/16/8
f 8/14/8 12/17/12 40/62/40
f 13/21/13 4/10/4 5/7/5
f 9/11/9 6/4/6 2/6/2
