# Blender 4.4.1
# www.blender.org
mtllib mirror.mtl
o Cube_cell
v -1.000000 -1.000000 -0.015327
v -1.000000 -1.000000 0.015327
v -0.751330 -0.047103 0.015327
v -0.732658 -0.426975 0.015327
v -0.675364 -0.663793 -0.015327
v -0.705572 -0.049240 -0.015327
v -0.659136 -1.000000 -0.015327
v -0.704999 -1.000000 0.015327
v -1.000000 -0.062930 0.015327
v -0.910705 -0.057114 0.015327
v -0.963406 -0.065435 -0.015327
v -1.000000 -0.067819 -0.015327
v -0.751330 -0.047103 0.015327
v -0.732658 -0.426975 0.015327
v -0.675364 -0.663793 -0.015327
v -0.705572 -0.049240 -0.015327
v -0.659136 -1.000000 -0.015327
v -0.704999 -1.000000 0.015327
v -0.963406 -0.065435 -0.015327
v -1.000000 -0.067819 -0.015327
v -1.000000 -0.062930 0.015327
v -0.910705 -0.057114 0.015327
vn 0.5573 0.0274 0.8299
vn 0.5555 0.0268 0.8311
vn -0.0642 0.9855 -0.1572
vn -0.0619 0.9850 -0.1610
vn -1.0000 -0.0000 -0.0000
vn -0.0000 -0.0000 1.0000
vn -0.0000 -0.0000 -1.0000
vn -0.0000 -1.0000 -0.0000
vt 1.000000 0.381061
vt 0.385574 0.000000
vt 0.620206 0.000000
vt 0.616475 0.616475
vt 0.950402 0.381056
vt 0.950521 0.616472
vt 1.000000 0.614111
vt 0.602401 0.380027
vt 1.000000 0.379599
vt 0.614426 0.000000
vt 0.379599 0.379599
vt 0.379794 0.000000
vt 0.375000 0.250000
vt 0.491523 0.000000
vt 0.375000 0.000000
vt 0.446628 0.283418
vt 0.492861 0.261162
vt 0.375000 1.000000
vt 0.491821 0.995426
vt 0.417026 0.959421
vt 0.125000 0.750000
vt 0.161875 0.500000
vt 0.125000 0.500000
vt 1.000000 0.616475
vt 0.381060 0.381060
vt 0.837061 0.614286
vt 0.614111 0.614111
vt 0.492134 0.250000
vt 0.375000 0.286875
vt 0.494112 0.281084
vt 0.375000 0.957392
vt 0.491523 1.000000
vt 0.493845 0.963197
vt 0.167608 0.750000
s 0
usemtl Material
f 14/1/1 16/2/1 13/3/1
f 15/4/2 18/5/2 17/6/2
f 19/7/3 21/8/3 22/9/3
f 16/10/4 22/11/4 13/12/4
f 2/13/5 12/14/5 1/15/5
f 2/13/6 4/16/6 10/17/6
f 1/18/7 11/19/7 5/20/7
f 1/21/8 8/22/8 2/23/8
f 14/1/1 15/24/1 16/2/1
f 15/4/2 14/25/2 18/5/2
f 19/7/3 20/26/3 21/8/3
f 16/10/4 19/27/4 22/11/4
f 2/13/5 9/28/5 12/14/5
f 10/17/6 9/28/6 2/13/6
f 2/13/6 8/29/6 4/16/6
f 4/16/6 3/30/6 10/17/6
f 5/20/7 7/31/7 1/18/7
f 1/18/7 12/32/7 11/19/7
f 11/19/7 6/33/7 5/20/7
f 1/21/8 7/34/8 8/22/8
o Cube_cell.001
v -0.108260 0.036340 0.015327
v -0.032287 -0.022365 0.015327
v -0.081757 0.011688 -0.015327
v -0.034564 -0.024778 -0.015327
v -0.106912 -0.658482 0.015327
v -0.080919 -0.419918 -0.015327
v -0.141020 0.061399 0.015327
v -0.134609 0.052117 -0.015327
v -0.147087 -1.000000 0.015327
v -0.149159 -1.000000 -0.015327
v -0.333913 0.027117 0.015327
v -0.445808 -0.003191 -0.015327
v -0.746970 -0.046895 0.015327
v -0.701090 -0.048933 -0.015327
v -0.729094 -0.426541 0.015327
v -0.672183 -0.662862 -0.015327
v -0.656059 -1.000000 -0.015327
v -0.701667 -1.000000 0.015327
v -0.081757 0.011688 -0.015327
v -0.034564 -0.024778 -0.015327
v -0.108260 0.036340 0.015327
v -0.032287 -0.022365 0.015327
v -0.106912 -0.658482 0.015327
v -0.080919 -0.419918 -0.015327
v -0.134609 0.052117 -0.015327
v -0.141020 0.061399 0.015327
v -0.147087 -1.000000 0.015327
v -0.149159 -1.000000 -0.015327
v -0.333913 0.027117 0.015327
v -0.445808 -0.003191 -0.015327
v -0.746970 -0.046895 0.015327
v -0.701090 -0.048933 -0.015327
v -0.656059 -1.000000 -0.015327
v -0.701667 -1.000000 0.015327
v -0.729094 -0.426541 0.015327
v -0.672183 -0.662862 -0.015327
vn 0.6079 0.7867 -0.1071
vn 0.9911 -0.1163 -0.0645
vn 0.6037 0.7892 -0.1127
vn 0.9909 -0.1166 -0.0670
vn -0.1659 0.9337 -0.3174
vn -0.1675 0.9349 -0.3129
vn -0.5576 -0.0267 -0.8297
vn -0.5562 -0.0262 -0.8307
vn -0.0000 -0.0000 1.0000
vn -0.0000 -0.0000 -1.0000
vn -0.0000 -1.0000 -0.0000
vt 0.383996 0.000000
vt 0.617995 0.617995
vt 0.383884 0.383884
vt 0.616801 0.000000
vt 1.000000 0.617995
vt 0.383107 0.000000
vt 0.382542 0.000000
vt 1.000000 0.381824
vt 1.000000 0.616004
vt 0.383107 0.383107
vt 0.619687 0.048703
vt 0.616801 0.616801
vt 0.382542 0.382542
vt 1.000000 0.616225
vt 0.617275 0.617275
vt 0.380849 0.380849
vt 0.617681 0.000000
vt 0.616225 0.616225
vt 0.431426 0.381759
vt 1.000000 0.615243
vt 0.665734 0.616008
vt 0.618252 0.000000
vt 0.380458 0.380458
vt 0.382319 0.000000
vt 0.504542 0.361467
vt 0.446682 0.283863
vt 0.375000 0.356614
vt 0.496903 0.879321
vt 0.417142 0.959023
vt 0.499601 0.930726
vt 0.231614 0.500000
vt 0.167993 0.750000
vt 0.231355 0.750000
vt 0.618176 0.000000
vt 1.000000 0.383884
vt 0.617275 0.000000
vt 0.384806 0.048644
vt 1.000000 0.380848
vt 0.381748 0.000000
vt 1.000000 0.380458
vt 0.615243 0.615243
vt 0.417690 0.361636
vt 0.497204 0.370964
vt 0.507675 0.357372
vt 0.503390 0.333261
vt 0.494138 0.281629
vt 0.375000 0.287292
vt 0.506515 0.891826
vt 0.501461 0.885220
vt 0.447510 0.885115
vt 0.375000 0.893645
vt 0.375000 0.957007
vt 0.493883 0.962636
vt 0.162292 0.500000
s 0
usemtl Material
f 41/35/9 44/36/9 42/37/9
f 46/38/10 44/39/10 45/40/10
f 47/41/11 43/42/11 41/43/11
f 45/44/12 50/45/12 46/46/12
f 47/47/13 51/48/13 48/49/13
f 52/50/14 53/51/14 51/52/14
f 56/53/15 58/54/15 55/55/15
f 54/56/16 57/57/16 53/58/16
f 23/59/17 37/60/17 31/61/17
f 26/62/18 38/63/18 34/64/18
f 31/65/19 39/66/19 32/67/19
f 41/35/9 43/68/9 44/36/9
f 46/38/10 42/69/10 44/39/10
f 47/41/11 48/70/11 43/42/11
f 45/44/12 49/71/12 50/45/12
f 47/47/13 52/72/13 51/48/13
f 52/50/14 54/73/14 53/51/14
f 56/53/15 57/74/15 58/54/15
f 54/56/16 58/75/16 57/57/16
f 27/76/17 24/77/17 23/59/17
f 23/59/17 29/78/17 33/79/17
f 33/79/17 35/80/17 37/60/17
f 37/60/17 40/81/17 31/61/17
f 31/61/17 27/76/17 23/59/17
f 23/59/17 33/79/17 37/60/17
f 30/82/18 25/83/18 26/62/18
f 26/62/18 28/84/18 32/85/18
f 32/85/18 39/86/18 38/63/18
f 38/63/18 36/87/18 34/64/18
f 34/64/18 30/82/18 26/62/18
f 26/62/18 32/85/18 38/63/18
f 31/65/19 40/88/19 39/66/19
o Cube_cell.002
v -1.000000 1.000000 -0.015327
v -1.000000 1.000000 0.015327
v -0.122966 0.678144 -0.015327
v -0.135942 0.054112 -0.015327
v -0.142085 0.063282 0.015327
v -0.134016 0.451303 0.015327
v -0.116544 1.000000 -0.015327
v -0.123067 1.000000 0.015327
v -0.335441 0.028577 0.015327
v -0.749617 -0.045381 0.015327
v -0.703677 -0.047552 -0.015327
v -0.446906 -0.001702 -0.015327
v -1.000000 -0.061178 0.015327
v -0.887864 -0.054229 0.015327
v -1.000000 -0.066090 -0.015327
v -0.789383 -0.053038 -0.015327
v -0.142085 0.063282 0.015327
v -0.134016 0.451303 0.015327
v -0.122966 0.678144 -0.015327
v -0.135942 0.054112 -0.015327
v -0.123067 1.000000 0.015327
v -0.116544 1.000000 -0.015327
v -0.335441 0.028577 0.015327
v -0.749617 -0.045381 0.015327
v -0.703677 -0.047552 -0.015327
v -0.446906 -0.001702 -0.015327
v -1.000000 -0.061178 0.015327
v -1.000000 -0.066090 -0.015327
v -0.789383 -0.053038 -0.015327
v -0.887864 -0.054229 0.015327
vn 0.9791 -0.0204 0.2023
vn 0.9779 -0.0195 0.2081
vn 0.1668 -0.9340 0.3161
vn 0.1678 -0.9347 0.3132
vn 0.0611 -0.9856 0.1579
vn 0.0630 -0.9844 0.1642
vn -1.0000 -0.0000 -0.0000
vn -0.0000 -0.0000 1.0000
vn -0.0000 -0.0000 -1.0000
vn -0.0000 1.0000 -0.0000
vt 0.616594 0.000000
vt 0.383853 0.383853
vt 0.383395 0.000000
vt 1.000000 0.617330
vt 0.434775 0.383517
vt 1.000000 0.383853
vt 0.381462 0.000000
vt 1.000000 0.381552
vt 1.000000 0.615452
vt 1.000000 0.383406
vt 0.615451 0.615451
vt 0.381552 0.381552
vt 0.498708 0.379873
vt 1.000000 0.615106
vt 0.733104 0.614326
vt 0.381337 0.381337
vt 0.618538 0.000000
vt 0.615106 0.615106
vt 0.492353 0.250000
vt 0.625000 0.000000
vt 0.491739 0.000000
vt 0.625000 0.359617
vt 0.494327 0.281298
vt 0.625000 0.889568
vt 0.506764 0.891993
vt 0.494056 0.962960
vt 0.875000 0.750000
vt 0.765383 0.500000
vt 0.764568 0.750000
vt 0.617330 0.617330
vt 0.668450 0.617133
vt 0.616535 0.000000
vt 1.000000 0.616605
vt 1.000000 0.381337
vt 0.383465 0.000000
vt 0.625000 0.250000
vt 0.503572 0.333070
vt 0.507910 0.357239
vt 0.556413 0.358248
vt 0.493221 0.264017
vt 0.493370 0.973673
vt 0.491739 1.000000
vt 0.625000 1.000000
vt 0.584768 0.890371
vt 0.499787 0.930863
vt 0.875000 0.500000
s 0
usemtl Material
f 78/89/20 76/90/20 75/91/20
f 77/92/21 79/93/21 76/94/21
f 82/95/22 84/96/22 81/97/22
f 78/98/23 81/99/23 84/100/23
f 86/101/24 88/102/24 85/103/24
f 87/104/25 82/105/25 88/106/25
f 71/107/26 59/108/26 73/109/26
f 66/110/27 71/107/27 68/111/27
f 65/112/28 62/113/28 69/114/28
f 59/115/29 66/116/29 65/117/29
f 78/89/20 77/118/20 76/90/20
f 77/92/21 80/119/21 79/93/21
f 82/95/22 83/120/22 84/96/22
f 78/98/23 75/121/23 81/99/23
f 86/101/24 87/122/24 88/102/24
f 87/104/25 83/123/25 82/105/25
f 71/107/26 60/124/26 59/108/26
f 68/111/27 67/125/27 63/126/27
f 63/126/27 64/127/27 66/110/27
f 66/110/27 60/124/27 71/107/27
f 71/107/27 72/128/27 68/111/27
f 68/111/27 63/126/27 66/110/27
f 69/114/28 74/129/28 73/130/28
f 73/130/28 59/131/28 65/112/28
f 65/112/28 61/132/28 62/113/28
f 62/113/28 70/133/28 69/114/28
f 69/114/28 73/130/28 65/112/28
f 59/115/29 60/134/29 66/116/29
o Cube_cell.003
v -0.105352 -0.662637 0.015327
v -0.033105 -0.025745 -0.015327
v -0.079435 -0.422875 -0.015327
v -0.030758 -0.023238 0.015327
v -0.144587 -1.000000 0.015327
v -0.146554 -1.000000 -0.015327
v 0.434924 -0.427001 0.015327
v 0.095643 -0.054681 0.015327
v 0.667529 -0.664850 -0.015327
v 0.120003 -0.064007 -0.015327
v 0.972353 -1.000000 -0.015327
v 0.956076 -1.000000 0.015327
v 0.020493 -0.035810 0.015327
v -0.001273 -0.033554 -0.015327
v -0.105352 -0.662637 0.015327
v -0.030758 -0.023238 0.015327
v -0.033105 -0.025745 -0.015327
v -0.079435 -0.422875 -0.015327
v -0.144587 -1.000000 0.015327
v -0.146554 -1.000000 -0.015327
v 0.434924 -0.427001 0.015327
v 0.095643 -0.054681 0.015327
v 0.667529 -0.664850 -0.015327
v 0.120003 -0.064007 -0.015327
v 0.972353 -1.000000 -0.015327
v 0.956076 -1.000000 0.015327
v 0.020493 -0.035810 0.015327
v -0.001273 -0.033554 -0.015327
vn -0.9911 0.1156 0.0664
vn -0.9913 0.1153 0.0636
vn 0.6904 0.6291 0.3572
vn 0.6886 0.6263 0.3656
vn 0.2423 0.9649 -0.1010
vn 0.2371 0.9666 -0.0972
vn -0.0000 -0.0000 1.0000
vn -0.0000 -0.0000 -1.0000
vn -0.0000 -1.0000 -0.0000
vt 0.381016 0.000000
vt 1.000000 0.385082
vt 1.000000 0.620002
vt 0.620002 0.620002
vt 0.950622 0.386021
vt 0.950593 0.620551
vt 1.000000 0.383476
vt 0.384933 0.000000
vt 0.618867 0.000000
vt 0.618848 0.618848
vt 0.950422 0.383413
vt 0.950457 0.618810
vt 0.618866 0.618866
vt 1.000000 0.384029
vt 1.000000 0.618306
vt 0.384029 0.384029
vt 0.618985 0.000000
vt 0.618306 0.618306
vt 0.417170 0.361831
vt 0.375000 0.494510
vt 0.493165 0.386955
vt 0.375000 0.893319
vt 0.496782 0.879138
vt 0.491999 0.860000
vt 0.231681 0.750000
vt 0.369510 0.500000
vt 0.231927 0.500000
vt 0.615550 0.000000
vt 0.385082 0.385082
vt 1.000000 0.618848
vt 0.383476 0.383476
vt 0.384933 0.384933
vt 0.384450 0.000000
vt 0.495524 0.377562
vt 0.497095 0.371155
vt 0.375000 0.356927
vt 0.446625 0.429366
vt 0.416894 0.791559
vt 0.375000 0.753456
vt 0.447141 0.884929
vt 0.495806 0.875159
vt 0.371544 0.750000
s 0
usemtl Material
f 104/135/30 106/136/30 103/137/30
f 103/138/31 108/139/31 107/140/31
f 109/141/32 112/142/32 110/143/32
f 111/144/33 114/145/33 113/146/33
f 110/147/34 116/148/34 115/149/34
f 116/150/35 104/151/35 115/152/35
f 89/153/36 100/154/36 96/155/36
f 94/156/37 90/157/37 98/158/37
f 94/159/38 100/160/38 93/161/38
f 104/135/30 105/162/30 106/136/30
f 103/138/31 106/163/31 108/139/31
f 109/141/32 111/164/32 112/142/32
f 111/144/33 109/165/33 114/145/33
f 110/147/34 112/166/34 116/148/34
f 116/150/35 105/167/35 104/151/35
f 101/168/36 92/169/36 89/153/36
f 89/153/36 93/170/36 100/154/36
f 100/154/36 95/171/36 96/155/36
f 96/155/36 101/168/36 89/153/36
f 97/172/37 99/173/37 94/156/37
f 94/156/37 91/174/37 90/157/37
f 90/157/37 102/175/37 98/158/37
f 98/158/37 97/172/37 94/156/37
f 94/159/38 99/176/38 100/160/38
o Cube_cell.004
v 1.000000 1.000000 -0.015327
v 1.000000 1.000000 0.015327
v 0.562895 -0.011889 0.015327
v 0.410453 -0.025449 0.015327
v 0.560927 -0.023394 -0.015327
v 0.315498 -0.045226 -0.015327
v 0.096429 -0.052854 0.015327
v 0.121167 -0.062185 -0.015327
v 0.020148 -0.033931 0.015327
v -0.001699 -0.031706 -0.015327
v 1.000000 0.921675 -0.015327
v 1.000000 0.928984 0.015327
v -0.030926 -0.021155 0.015327
v -0.033356 -0.023787 -0.015327
v -0.121266 0.676261 -0.015327
v -0.133688 0.053588 -0.015327
v -0.139867 0.062877 0.015327
v -0.132165 0.448942 0.015327
v -0.114645 1.000000 -0.015327
v -0.120895 1.000000 0.015327
v 0.562895 -0.011889 0.015327
v 0.410453 -0.025449 0.015327
v 0.560927 -0.023394 -0.015327
v 0.315498 -0.045226 -0.015327
v 0.121167 -0.062185 -0.015327
v 0.096429 -0.052854 0.015327
v 0.020148 -0.033931 0.015327
v -0.001699 -0.031706 -0.015327
v 1.000000 0.928984 0.015327
v 1.000000 0.921675 -0.015327
v -0.030926 -0.021155 0.015327
v -0.033356 -0.023787 -0.015327
v -0.139867 0.062877 0.015327
v -0.132165 0.448942 0.015327
v -0.121266 0.676261 -0.015327
v -0.133688 0.053588 -0.015327
v -0.114645 1.000000 -0.015327
v -0.120895 1.000000 0.015327
vn 0.0831 -0.9347 0.3455
vn 0.0814 -0.9333 0.3498
vn -0.2395 -0.9657 0.1006
vn -0.6066 -0.7865 0.1160
vn -0.2414 -0.9650 0.1020
vn -0.9789 0.0195 -0.2032
vn -0.9796 0.0200 -0.1997
vn -0.0000 -0.0000 1.0000
vn 1.0000 -0.0000 -0.0000
vn -0.0000 -0.0000 -1.0000
vn -0.0000 1.0000 -0.0000
vn 0.9024 -0.4193 0.0994
vn -0.6066 -0.7866 0.1156
vn 0.9024 -0.4192 0.1000
vt 1.000000 0.384562
vt 0.383615 0.000000
vt 0.617151 0.000000
vt 0.619143 0.619143
vt 1.000000 0.384287
vt 1.000000 0.618973
vt 0.384287 0.384287
vt 0.617987 0.000000
vt 0.618973 0.618973
vt 1.000000 0.616675
vt 0.380827 0.380827
vt 1.000000 0.382347
vt 0.380827 0.000000
vt 1.000000 0.382013
vt 1.000000 0.616325
vt 0.381501 0.000000
vt 0.616675 0.616675
vt 0.382347 0.382347
vt 0.615311 0.615311
vt 0.948258 0.382079
vt 0.948273 0.615651
vt 0.496819 0.426307
vt 0.625000 0.359888
vt 0.507860 0.357517
vt 0.625000 0.750000
vt 0.616123 0.500000
vt 0.615209 0.750000
vt 0.497027 0.879169
vt 0.497076 0.804884
vt 0.625000 0.500000
vt 0.764331 0.750000
vt 0.765112 0.500000
vt 0.380186 0.103486
vt 1.000000 0.382849
vt 1.000000 0.616385
vt 1.000000 0.619143
vt 0.384562 0.384562
vt 0.383675 0.000000
vt 0.616222 0.616222
vt 0.616221 0.000000
vt 0.615311 0.000000
vt 0.381501 0.381501
vt 0.497356 0.371134
vt 0.495759 0.377519
vt 0.493393 0.387054
vt 0.498514 0.445362
vt 0.616123 0.500000
vt 0.556118 0.358479
vt 0.494347 0.835563
vt 0.492227 0.859854
vt 0.496037 0.875212
vt 0.506698 0.891711
vt 0.584533 0.890158
vt 0.625000 0.889331
vt 0.615209 0.750000
vt 0.615041 0.103542
s 0
usemtl Material
f 138/177/39 139/178/39 137/179/39
f 140/180/40 142/181/40 141/182/40
f 142/183/41 144/184/41 141/185/41
f 152/186/42 147/187/42 149/188/42
f 147/189/43 144/190/43 143/191/43
f 150/192/44 152/193/44 149/194/44
f 151/195/45 154/196/45 153/197/45
f 120/198/46 136/199/46 133/200/46
f 117/201/47 145/202/47 146/203/47
f 130/204/48 117/201/48 121/205/48
f 118/206/49 135/207/49 136/208/49
f 127/209/50 137/210/50 139/211/50
f 138/177/39 140/212/39 139/178/39
f 140/180/40 138/213/40 142/181/40
f 142/183/41 143/214/41 144/184/41
f 152/186/51 148/215/51 147/187/51
f 147/189/43 148/216/43 144/190/43
f 150/192/44 151/217/44 152/193/44
f 151/195/45 150/218/45 154/196/45
f 133/200/46 129/219/46 125/220/46
f 125/220/46 123/221/46 120/198/46
f 120/198/46 119/222/46 145/223/46
f 145/223/46 118/206/46 136/199/46
f 136/199/46 134/224/46 133/200/46
f 133/200/46 125/220/46 120/198/46
f 120/198/46 145/223/46 136/199/46
f 117/201/47 118/206/47 145/202/47
f 121/205/48 122/225/48 124/226/48
f 124/226/48 126/227/48 130/204/48
f 130/204/48 132/228/48 131/229/48
f 131/229/48 135/230/48 117/201/48
f 117/201/48 146/231/48 121/205/48
f 121/205/48 124/226/48 130/204/48
f 130/204/48 131/229/48 117/201/48
f 118/206/49 117/201/49 135/207/49
f 127/209/52 128/232/52 137/210/52
o Cube_cell.005
v 1.000000 -1.000000 -0.015327
v 1.000000 -1.000000 0.015327
v 1.000000 -0.005831 -0.015327
v 0.752844 -0.005353 0.015327
v 1.000000 0.005447 0.015327
v 0.866609 -0.011659 -0.015327
v 0.563445 -0.014197 0.015327
v 0.561486 -0.025907 -0.015327
v 0.411405 -0.027475 0.015327
v 0.316550 -0.047297 -0.015327
v 0.098913 -0.054867 0.015327
v 0.123400 -0.064229 -0.015327
v 0.959237 -1.000000 0.015327
v 0.667125 -0.679457 0.015327
v 0.474608 -0.450284 -0.015327
v 0.975568 -1.000000 -0.015327
v 0.752844 -0.005353 0.015327
v 1.000000 0.005447 0.015327
v 1.000000 -0.005831 -0.015327
v 0.866609 -0.011659 -0.015327
v 0.561486 -0.025907 -0.015327
v 0.563445 -0.014197 0.015327
v 0.411405 -0.027475 0.015327
v 0.316550 -0.047297 -0.015327
v 0.098913 -0.054867 0.015327
v 0.123400 -0.064229 -0.015327
v 0.474608 -0.450284 -0.015327
v 0.975568 -1.000000 -0.015327
v 0.959237 -1.000000 0.015327
v 0.667125 -0.679457 0.015327
vn -0.0410 0.9377 -0.3450
vn -0.0436 0.9342 -0.3541
vn -0.0815 0.9328 -0.3511
vn -0.0818 0.9331 -0.3503
vn -0.6877 -0.6267 -0.3664
vn -0.6902 -0.6279 -0.3596
vn -0.0000 -0.0000 1.0000
vn 1.0000 -0.0000 -0.0000
vn -0.0000 -0.0000 -1.0000
vn -0.0000 -1.0000 -0.0000
vt 0.895731 0.385955
vt 0.619941 0.619941
vt 0.384817 0.384817
vt 0.380374 0.000000
vt 1.000000 0.384817
vt 1.000000 0.619941
vt 0.380374 0.380374
vt 1.000000 0.615367
vt 0.615379 0.615379
vt 0.380354 0.380354
vt 0.615014 0.000000
vt 0.615367 0.615367
vt 0.617186 0.566035
vt 0.381607 0.000000
vt 0.617775 0.000000
vt 0.617775 0.617775
vt 1.000000 0.384986
vt 1.000000 0.619864
vt 0.499331 0.469106
vt 0.496566 0.426426
vt 0.415068 0.458391
vt 0.375000 0.500000
vt 0.499271 0.750000
vt 0.500681 0.500000
vt 0.496762 0.804814
vt 0.499271 0.750000
vt 0.375000 0.753054
vt 0.371946 0.750000
vt 0.369905 0.500000
vt 0.895684 0.620555
vt 0.615379 0.000000
vt 1.000000 0.380354
vt 0.380136 0.000000
vt 0.381263 0.330058
vt 0.381607 0.381607
vt 0.375000 0.494905
vt 0.498225 0.445431
vt 0.493142 0.387364
vt 0.375000 0.750000
vt 0.443715 0.815674
vt 0.491971 0.859575
vt 0.494088 0.835431
vt 0.498543 0.766674
s 0
usemtl Material
f 172/233/53 174/234/53 171/235/53
f 175/236/54 171/237/54 174/238/54
f 175/239/55 177/240/55 176/241/55
f 178/242/56 179/243/56 177/244/56
f 182/245/57 184/246/57 181/247/57
f 181/248/58 179/249/58 180/250/58
f 158/251/59 163/252/59 168/253/59
f 156/254/60 157/255/60 159/256/60
f 162/257/61 157/258/61 170/259/61
f 170/260/62 156/254/62 167/261/62
f 172/233/53 173/262/53 174/234/53
f 175/236/54 176/263/54 171/237/54
f 175/239/55 178/264/55 177/240/55
f 178/242/56 180/265/56 179/243/56
f 182/245/57 183/266/57 184/246/57
f 181/248/58 184/267/58 179/249/58
f 168/253/59 167/268/59 156/254/59
f 156/254/59 159/256/59 158/251/59
f 158/251/59 161/269/59 163/252/59
f 163/252/59 165/270/59 168/253/59
f 168/253/59 156/254/59 158/251/59
f 156/254/60 155/271/60 157/255/60
f 170/259/61 169/272/61 166/273/61
f 166/273/61 164/274/61 162/257/61
f 162/257/61 160/275/61 157/258/61
f 157/258/61 155/271/61 170/259/61
f 170/259/61 166/273/61 162/257/61
f 170/260/62 155/271/62 156/254/62
o Cube_cell.006
v 1.000000 -0.003686 -0.015327
v 1.000000 0.007732 0.015327
v 0.565405 -0.012114 0.015327
v 0.563416 -0.023631 -0.015327
v 1.000000 0.918148 -0.015327
v 1.000000 0.925323 0.015327
v 1.000000 -0.003686 -0.015327
v 1.000000 0.007732 0.015327
v 0.563416 -0.023631 -0.015327
v 0.565405 -0.012114 0.015327
v 1.000000 0.918148 -0.015327
v 1.000000 0.925323 0.015327
vn -0.9029 0.4186 -0.0980
vn -0.0000 -0.0000 1.0000
vn 1.0000 -0.0000 -0.0000
vn -0.0000 -0.0000 -1.0000
vn 0.0428 -0.9362 0.3489
vn -0.9028 0.4185 -0.0987
vn 0.0428 -0.9362 0.3487
vt 0.896870 0.614962
vt 0.381777 0.381777
vt 0.896776 0.380314
vt 0.500967 0.500000
vt 0.615665 0.500000
vt 0.498486 0.445676
vt 0.614769 0.750000
vt 0.615665 0.500000
vt 0.499539 0.750000
vt 0.497046 0.804573
vt 0.614769 0.750000
vt 0.617797 0.516087
vt 1.000000 0.381777
vt 1.000000 0.617938
vt 0.617939 0.617939
vt 0.383412 0.281774
s 0
usemtl Material
f 195/276/63 194/277/63 196/278/63
f 192/279/64 190/280/64 187/281/64
f 192/279/65 189/282/65 190/283/65
f 191/284/66 188/285/66 189/286/66
f 185/287/67 194/288/67 193/289/67
f 195/276/68 193/290/68 194/277/68
f 192/279/65 191/284/65 189/282/65
f 185/287/69 186/291/69 194/288/69
